<?xml version="1.0" encoding="UTF-8" standalone="no"?>
<!-- Created with Inkscape (http://www.inkscape.org/) -->

<svg
   xmlns:dc="http://purl.org/dc/elements/1.1/"
   xmlns:cc="http://creativecommons.org/ns#"
   xmlns:rdf="http://www.w3.org/1999/02/22-rdf-syntax-ns#"
   xmlns:svg="http://www.w3.org/2000/svg"
   xmlns="http://www.w3.org/2000/svg"
   xmlns:sodipodi="http://sodipodi.sourceforge.net/DTD/sodipodi-0.dtd"
   xmlns:inkscape="http://www.inkscape.org/namespaces/inkscape"
   version="1.1"
   id="svg2"
   width="970.66669"
   height="160"
   viewBox="0 0 970.66669 160"
   sodipodi:docname="bee.svg"
   inkscape:export-filename="/home/hpeter/Downloads/bee_text.png"
   inkscape:export-xdpi="400"
   inkscape:export-ydpi="400"
   inkscape:version="0.92.3 (2405546, 2018-03-11)">
  <metadata
     id="metadata8">
    <rdf:RDF>
      <cc:Work
         rdf:about="">
        <dc:format>image/svg+xml</dc:format>
        <dc:type
           rdf:resource="http://purl.org/dc/dcmitype/StillImage" />
        <dc:title />
      </cc:Work>
    </rdf:RDF>
  </metadata>
  <defs
     id="defs6" />
  <sodipodi:namedview
     pagecolor="#ffffff"
     bordercolor="#666666"
     borderopacity="1"
     objecttolerance="10"
     gridtolerance="10"
     guidetolerance="10"
     inkscape:pageopacity="0"
     inkscape:pageshadow="2"
     inkscape:window-width="2560"
     inkscape:window-height="1320"
     id="namedview4"
     showgrid="false"
     inkscape:zoom="0.45638736"
     inkscape:cx="-164.13478"
     inkscape:cy="246.51975"
     inkscape:window-x="1920"
     inkscape:window-y="27"
     inkscape:window-maximized="1"
     inkscape:current-layer="layer2" />
  <ellipse
     style="fill:#ffffff;fill-opacity:0;stroke:#ffffff;stroke-width:0.5;stroke-linejoin:round;stroke-miterlimit:4;stroke-dasharray:none;stroke-opacity:0"
     id="path854"
     cx="320.81366"
     cy="66.263924"
     rx="36.313046"
     ry="32.149151" />
  <g
     inkscape:groupmode="layer"
     id="layer1"
     inkscape:label="Layer 1">
    <rect
       style="fill:#ffffff;fill-opacity:1;stroke:#ffffff;stroke-width:2.84705019;stroke-linejoin:round;stroke-miterlimit:4;stroke-dasharray:none;stroke-opacity:0"
       id="rect867"
       width="1059.826"
       height="940.04913"
       x="-52.279278"
       y="-728.93182" />
  </g>
  <g
     inkscape:groupmode="layer"
     id="layer2"
     inkscape:label="Layer 2">
    <g
       id="g850"
       transform="matrix(10.66311,0,0,10.66311,-2999.6931,-982.39773)">
      <path
         sodipodi:nodetypes="aaaaaaaaaaaaaaaa"
         inkscape:connector-curvature="0"
         id="path819"
         d="m 293.40942,42.055225 c -0.95567,1.572522 -1.37857,3.487256 -1.45252,5.325913 -0.0537,1.333882 0.26658,2.687735 0.74004,3.935915 0.465,1.225865 1.10867,2.432283 2.01974,3.375112 0.86005,0.890034 1.96701,1.561993 3.11894,2.014661 1.153,0.453087 2.42291,0.722771 3.6595,0.648295 1.19619,-0.07204 2.35972,-0.526885 3.43911,-1.047449 1.11146,-0.536029 2.15447,-1.249507 3.04882,-2.099682 0.87118,-0.828147 1.57612,-1.83086 2.19297,-2.862499 0.58398,-0.976652 1.13165,-2.006707 1.40467,-3.111394 0.25534,-1.033162 0.35772,-2.135459 0.19311,-3.186899 -0.15547,-0.993015 -0.54088,-1.970529 -1.09355,-2.810052 -0.75595,-1.1483 -1.77622,-2.160256 -2.93928,-2.893295 -1.52462,-0.960916 -3.2866,-1.70648 -5.08383,-1.839862 -1.87178,-0.138915 -3.84785,0.26025 -5.51958,1.1136 -1.50557,0.768532 -2.85025,1.993099 -3.72814,3.437636 z"
         style="fill:#017b80;fill-opacity:1;stroke:#017b80;stroke-width:1px;stroke-linecap:butt;stroke-linejoin:miter;stroke-opacity:1" />
      <path
         sodipodi:nodetypes="caaaaaaaaaaaaac"
         inkscape:connector-curvature="0"
         id="path821"
         d="m 314.03523,46.703295 c 0,0 5.55026,1.065906 8.23095,1.936695 2.06394,0.670444 4.10124,1.473798 6.00376,2.517705 1.68773,0.926051 3.1944,2.151374 4.74491,3.292383 1.94496,1.43128 3.75913,3.035651 5.71325,4.4544 1.26054,0.915193 2.43492,2.016757 3.87339,2.61454 1.70109,0.706917 3.58063,1.062124 5.42275,1.065182 1.8738,0.0031 3.9199,-0.08939 5.51958,-1.065182 1.47187,-0.897828 2.51381,-2.483479 3.19555,-4.067062 0.69675,-1.618445 1.11379,-3.499967 0.77468,-5.229079 -0.3537,-1.803522 -1.39967,-3.564308 -2.80821,-4.744904 -1.69089,-1.41725 -4.04398,-1.844065 -6.19743,-2.324035 -2.37044,-0.528335 -4.83545,-0.497358 -7.26261,-0.581009 -5.90377,-0.20347 -11.84672,-0.432051 -17.72076,0.19367 -3.21031,0.341972 -9.48981,1.936696 -9.48981,1.936696 z"
         style="fill:#017b80;fill-opacity:1;stroke:#017b80;stroke-width:1px;stroke-linecap:butt;stroke-linejoin:miter;stroke-opacity:1" />
      <path
         style="fill:#017b80;fill-opacity:1;stroke:#017b80;stroke-width:1px;stroke-linecap:butt;stroke-linejoin:miter;stroke-opacity:1"
         d="m 303.86158,59.138132 c 0,0 2.24822,5.18527 3.68152,7.612208 1.10353,1.868569 2.33101,3.682213 3.76392,5.311957 1.27115,1.445749 2.79499,2.64965 4.24608,3.914689 1.82025,1.586865 3.78097,3.008406 5.59098,4.60694 1.16757,1.031161 2.49831,1.937669 3.39481,3.211572 1.06017,1.506478 1.8159,3.263669 2.21976,5.060973 0.41081,1.828216 0.76582,3.845405 0.16154,5.6191 -0.55599,1.631985 -1.87689,2.994023 -3.27415,4.004053 -1.42803,1.032259 -3.1737,1.848766 -4.93518,1.894076 -1.83726,0.0473 -3.78347,-0.590443 -5.2423,-1.708306 -1.75127,-1.341931 -2.67993,-3.545743 -3.61704,-5.543129 -1.03154,-2.19865 -1.53774,-4.611321 -2.1476,-6.962105 -1.48339,-5.717994 -2.99982,-11.468764 -3.66742,-17.338192 -0.36486,-3.207789 -0.17492,-9.683836 -0.17492,-9.683836 z"
         id="path823"
         inkscape:connector-curvature="0"
         sodipodi:nodetypes="caaaaaaaaaaaaac" />
      <path
         sodipodi:nodetypes="cssszzzcsssczzzzzzcsssc"
         inkscape:connector-curvature="0"
         id="path825"
         d="m 305.68495,57.930256 c 0,0 0.45676,2.330409 0.894,3.491926 0.43724,1.161517 1.07334,2.772617 1.54935,3.679723 0.47601,0.907106 0.91231,1.66179 1.6462,2.42087 0.73389,0.75908 1.82654,1.551034 2.75149,2.010034 0.92495,0.459 1.71643,0.658573 2.67125,0.798175 0.95482,0.139602 1.93771,0.353104 2.85663,0.290504 0.91892,-0.0626 2.61454,-0.370724 2.61454,-0.370724 0,0 1.69042,-1.297489 2.49178,-2.010035 0.80136,-0.712547 1.64968,-1.496525 2.30985,-2.261435 0.66018,-0.764911 1.1647,-1.430907 1.6628,-2.289799 0.49811,-0.858891 1.28377,-2.85176 1.28377,-2.85176 0,0 -0.38332,-2.94598 -0.70519,-3.966787 -0.32187,-1.020807 -0.61778,-1.66517 -1.06518,-2.42087 -0.4474,-0.7557 -0.93669,-1.454033 -1.59778,-2.081949 -0.66109,-0.627916 -1.42731,-1.131104 -2.34408,-1.614388 -0.91677,-0.483284 -2.06955,-0.873852 -3.14714,-1.210435 -1.07759,-0.336583 -2.26294,-0.590318 -3.30556,-0.80304 -1.04261,-0.212723 -2.94272,-0.145257 -2.94272,-0.145257 0,0 -0.9286,1.945875 -1.4041,2.877394 -0.4755,0.931519 -0.88658,1.706383 -1.57427,2.585169 -0.6877,0.878787 -1.79164,1.845919 -2.63703,2.547787 -0.8454,0.701867 -2.00861,1.324897 -2.00861,1.324897 z"
         style="fill:#017b80;fill-opacity:1;stroke:#017b80;stroke-width:1px;stroke-linecap:butt;stroke-linejoin:miter;stroke-opacity:1" />
      <path
         sodipodi:nodetypes="csscssassassassssssc"
         inkscape:connector-curvature="0"
         id="path836"
         d="m 320.81366,71.831923 c 0,0 2.61724,-1.679593 3.87339,-2.808209 1.25614,-1.128616 2.65897,-2.582181 3.58289,-3.970227 0.92392,-1.388046 1.98511,-4.212313 1.98511,-4.212313 0,0 4.00393,0.05266 5.71326,0.338922 1.70933,0.286265 2.9884,0.712209 4.50282,1.258852 1.51442,0.546643 3.17089,1.108511 4.55123,2.033531 1.14746,0.768957 2.11377,1.720154 3.00188,2.856626 0.88811,1.136472 1.70842,2.490391 2.2272,3.921809 0.51878,1.431418 0.82872,3.009557 0.82309,4.551235 -0.004,1.133185 -0.10431,1.965987 -0.62942,3.340801 -0.52511,1.374814 -1.61292,3.278889 -2.80821,4.64807 -1.19529,1.369181 -2.6543,2.5719 -4.26073,3.437634 -1.49171,0.803903 -3.05965,1.379912 -4.84174,1.549357 -1.78209,0.169445 -4.02857,-0.262792 -5.61642,-0.677843 -1.58785,-0.415051 -2.61074,-0.761796 -3.87339,-1.597774 -1.26265,-0.835978 -2.61204,-2.162343 -3.48605,-3.437635 -0.87401,-1.275292 -1.28372,-2.743334 -1.81566,-3.994435 -0.53194,-1.251101 -0.96428,-2.2958 -1.46462,-3.498158 -0.50034,-1.202358 -1.46463,-3.740243 -1.46463,-3.740243 z"
         style="fill:#017b80;fill-opacity:1;stroke:#017b80;stroke-width:1px;stroke-linecap:butt;stroke-linejoin:miter;stroke-opacity:1" />
    </g>
  </g>
</svg>
